<svg width="120" height="120" viewBox="0 0 120 120" fill="none" xmlns="http://www.w3.org/2000/svg">
<path fill-rule="evenodd" clip-rule="evenodd" d="M27.4603 10C17.8172 10 10 17.8173 10 27.4603V54.4444C10 54.8828 10.3553 55.2381 10.7937 55.2381H16.3492C16.7875 55.2381 17.1429 54.8828 17.1429 54.4444V34.6032C17.1429 24.9602 24.9601 17.1429 34.6032 17.1429H85.3968C95.0399 17.1429 102.857 24.9602 102.857 34.6032V54.4444C102.857 54.8828 103.212 55.2381 103.651 55.2381H109.206C109.645 55.2381 110 54.8828 110 54.4444V27.4603C110 17.8173 102.183 10 92.5397 10H27.4603ZM110 65.5556C110 65.1172 109.645 64.7619 109.206 64.7619H103.651C103.212 64.7619 102.857 65.1172 102.857 65.5556V85.3968C102.857 95.0398 95.0399 102.857 85.3968 102.857H34.6032C24.9601 102.857 17.1429 95.0398 17.1429 85.3968V65.5556C17.1429 65.1172 16.7875 64.7619 16.3492 64.7619H10.7937C10.3553 64.7619 10 65.1172 10 65.5556V92.5397C10 102.183 17.8172 110 27.4603 110H92.5397C102.183 110 110 102.183 110 92.5397V65.5556ZM85.3968 17.9365H34.6032C25.3984 17.9365 17.9365 25.3985 17.9365 34.6032V54.4444C17.9365 54.8828 18.2918 55.2381 18.7302 55.2381H21.4987C21.899 55.2381 22.236 54.9381 22.2929 54.5418C24.9405 36.088 40.8139 21.9048 60 21.9048C79.1861 21.9048 95.0595 36.088 97.7071 54.5418C97.764 54.9381 98.101 55.2381 98.5013 55.2381H101.27C101.708 55.2381 102.063 54.8828 102.063 54.4444V34.6032C102.063 25.3985 94.6016 17.9365 85.3968 17.9365ZM92.0805 55.2381C92.5636 55.2381 92.935 54.8086 92.8535 54.3325C90.1627 38.6226 76.4776 26.6667 60 26.6667C43.5224 26.6667 29.8373 38.6226 27.1465 54.3325C27.065 54.8086 27.4364 55.2381 27.9195 55.2381H33.5802C33.9632 55.2381 34.2905 54.9633 34.3693 54.5885C36.8625 42.7205 47.3906 33.8095 60 33.8095C72.6094 33.8095 83.1375 42.7205 85.6307 54.5885C85.7095 54.9633 86.0368 55.2381 86.4198 55.2381H92.0805ZM27.1465 65.6675C27.065 65.1914 27.4364 64.7619 27.9195 64.7619H33.5802C33.9632 64.7619 34.2905 65.0367 34.3693 65.4115C36.8625 77.2795 47.3906 86.1905 60 86.1905C72.6094 86.1905 83.1375 77.2795 85.6307 65.4115C85.7095 65.0367 86.0368 64.7619 86.4198 64.7619H92.0805C92.5636 64.7619 92.935 65.1914 92.8535 65.6675C90.1627 81.3774 76.4776 93.3333 60 93.3333C43.5224 93.3333 29.8373 81.3774 27.1465 65.6675ZM21.4987 64.7619C21.899 64.7619 22.236 65.0619 22.2929 65.4582C24.9405 83.9119 40.8139 98.0952 60 98.0952C79.1861 98.0952 95.0595 83.9119 97.7071 65.4582C97.764 65.0619 98.101 64.7619 98.5013 64.7619H101.27C101.708 64.7619 102.063 65.1172 102.063 65.5556V85.3968C102.063 94.6015 94.6016 102.063 85.3968 102.063H34.6032C25.3984 102.063 17.9365 94.6015 17.9365 85.3968V65.5556C17.9365 65.1172 18.2918 64.7619 18.7302 64.7619H21.4987ZM60 76.6667C69.2047 76.6667 76.6667 69.2047 76.6667 60C76.6667 50.7953 69.2047 43.3333 60 43.3333C50.7952 43.3333 43.3333 50.7953 43.3333 60C43.3333 69.2047 50.7952 76.6667 60 76.6667ZM58.4127 55.2381C55.7828 55.2381 53.6508 57.3701 53.6508 60C53.6508 62.6299 55.7828 64.7619 58.4127 64.7619H65.9524C66.3907 64.7619 66.746 65.1172 66.746 65.5556V67.1429C66.746 67.5812 66.3907 67.9365 65.9524 67.9365H58.4127C54.0295 67.9365 50.4762 64.3833 50.4762 60C50.4762 55.6167 54.0295 52.0635 58.4127 52.0635H65.9524C66.3907 52.0635 66.746 52.4188 66.746 52.8571V54.4444C66.746 54.8828 66.3907 55.2381 65.9524 55.2381H58.4127ZM66.3492 60.7937C66.3492 61.232 65.9939 61.5873 65.5556 61.5873H59.2063C58.768 61.5873 58.4127 61.232 58.4127 60.7937V59.2063C58.4127 58.768 58.768 58.4127 59.2063 58.4127H65.5556C65.9939 58.4127 66.3492 58.768 66.3492 59.2063V60.7937Z" fill="white"/>
</svg>
