<svg width="300" height="172" viewBox="0 0 300 172" fill="none" xmlns="http://www.w3.org/2000/svg">
<path d="M300 6.74793e-06L300 172C300 172 235.443 172 188.924 138.555C135.212 99.9392 153.949 78.903 107.278 37.2667C65.5063 6.11083e-05 -5.67057e-06 7.62939e-05 -5.67057e-06 7.62939e-05L300 6.74793e-06Z" fill="url(#paint0_linear_9_34)" fill-opacity="0.1"/>
<path d="M300 1.55432e-06L300 131C300 131 285.225 93.0349 260.844 74.747C234.005 54.6158 210.5 63.1882 172.942 47.7765C138.285 33.5552 121 6.10352e-05 121 6.10352e-05L300 1.55432e-06Z" fill="url(#paint1_linear_9_34)" fill-opacity="0.1"/>
<defs>
<linearGradient id="paint0_linear_9_34" x1="150.909" y1="86" x2="283.11" y2="-20.8896" gradientUnits="userSpaceOnUse">
<stop stop-color="white"/>
<stop offset="1" stop-color="white" stop-opacity="0"/>
</linearGradient>
<linearGradient id="paint1_linear_9_34" x1="211.042" y1="65.5" x2="304.137" y2="6.53195" gradientUnits="userSpaceOnUse">
<stop stop-color="white"/>
<stop offset="1" stop-color="white" stop-opacity="0"/>
</linearGradient>
</defs>
</svg>
