<svg width="151" height="37" viewBox="0 0 151 37" fill="none" xmlns="http://www.w3.org/2000/svg">
<path d="M38.6406 19.7109C38.5469 20.6484 38.0312 21.1562 37.0938 21.2344C36.6562 21.2344 36.2734 21.0938 35.9453 20.8125C35.6328 20.5156 35.4766 20.1484 35.4766 19.7109V8.64844C35.4922 8.21094 35.6562 7.85156 35.9688 7.57031C36.2812 7.27344 36.6562 7.125 37.0938 7.125H46.9375C48.3125 7.17188 49.3516 7.47656 50.0547 8.03906C50.7578 8.58594 51.2656 9.21094 51.5781 9.91406C51.8906 10.6172 52.0469 11.3281 52.0469 12.0469C52.0469 12.7969 51.8906 13.5234 51.5781 14.2266C51.2812 14.9297 50.7734 15.5625 50.0547 16.125C49.3516 16.6719 48.4531 16.9375 47.3594 16.9219H41.4531C41.0156 16.9219 40.6484 16.7656 40.3516 16.4531C40.0391 16.1562 39.8828 15.7891 39.8828 15.3516C39.8828 14.9141 40.0312 14.5469 40.3281 14.25C40.6406 13.9375 41.0156 13.7812 41.4531 13.7812H47.5C47.7969 13.7812 48.0391 13.6875 48.2266 13.5C48.4297 13.2969 48.5781 13.0703 48.6719 12.8203C48.7656 12.5547 48.8125 12.2891 48.8125 12.0234C48.8125 11.7734 48.7656 11.5234 48.6719 11.2734C48.5781 11.0078 48.4297 10.7812 48.2266 10.5938C48.0391 10.3906 47.7969 10.2812 47.5 10.2656H39.25C38.8438 10.2812 38.6406 10.4844 38.6406 10.875V19.7109ZM56.1484 6.75C56.5703 6.76562 56.9297 6.92188 57.2266 7.21875C57.5234 7.5 57.6797 7.85156 57.6953 8.27344V19.7578C57.6016 20.6953 57.0859 21.2031 56.1484 21.2812C55.7109 21.2812 55.3281 21.1406 55 20.8594C54.6875 20.5625 54.5312 20.1953 54.5312 19.7578V8.27344C54.5469 7.83594 54.7109 7.47656 55.0234 7.19531C55.3359 6.89844 55.7109 6.75 56.1484 6.75ZM73.7734 19.7109V14.0625C73.7734 13.6719 73.5703 13.4688 73.1641 13.4531H64.9609C64.6641 13.4688 64.4062 13.6016 64.1875 13.8516C63.9688 14.0859 63.8047 14.3672 63.6953 14.6953C63.6016 15.0078 63.5547 15.3281 63.5547 15.6562C63.5547 15.9688 63.6016 16.2891 63.6953 16.6172C63.8047 16.9297 63.9688 17.2109 64.1875 17.4609C64.4062 17.6953 64.6641 17.8125 64.9609 17.8125H70.9609C71.3984 17.8125 71.7656 17.9688 72.0625 18.2812C72.375 18.5781 72.5312 18.9453 72.5312 19.3828C72.5312 19.8203 72.375 20.1875 72.0625 20.4844C71.7656 20.7969 71.3984 20.9531 70.9609 20.9531H65.0547C63.9609 20.9375 63.0547 20.6328 62.3359 20.0391C61.6328 19.4297 61.125 18.75 60.8125 18C60.5156 17.2344 60.3672 16.4453 60.3672 15.6328C60.3672 14.8516 60.5234 14.0859 60.8359 13.3359C61.1484 12.5703 61.6562 11.8906 62.3594 11.2969C63.0625 10.6875 64.1016 10.3594 65.4766 10.3125H75.3203C75.7578 10.3125 76.1328 10.4609 76.4453 10.7578C76.7578 11.0391 76.9219 11.3984 76.9375 11.8359V19.7109C76.9375 20.1484 76.7734 20.5156 76.4453 20.8125C76.1328 21.0938 75.7578 21.2344 75.3203 21.2344C74.3828 21.1562 73.8672 20.6484 73.7734 19.7109ZM87.4375 9.96094C88.25 9.96094 89.0469 10.0547 89.8281 10.2422C90.625 10.4297 91.3828 10.7109 92.1016 11.0859C92.8203 11.4453 93.4531 11.9297 94 12.5391C94.5625 13.1484 94.8672 13.875 94.9141 14.7188V15.7031V19.7109C94.8203 20.6484 94.3047 21.1562 93.3672 21.2344C92.9297 21.2344 92.5469 21.0938 92.2188 20.8125C91.9062 20.5156 91.75 20.1484 91.75 19.7109V18.6797V15.4453C91.7188 14.9609 91.5312 14.5625 91.1875 14.25C90.8594 13.9219 90.4844 13.6641 90.0625 13.4766C89.6562 13.2891 89.2266 13.1484 88.7734 13.0547C88.3359 12.9609 87.8906 12.9141 87.4375 12.9141C86.9844 12.9141 86.5312 12.9609 86.0781 13.0547C85.6406 13.1484 85.2109 13.2891 84.7891 13.4766C84.3828 13.6641 84.0078 13.9219 83.6641 14.25C83.3359 14.5625 83.1562 14.9609 83.125 15.4453V18.6797V19.7109C83.0469 20.6484 82.5391 21.1562 81.6016 21.2344C81.1641 21.2344 80.7812 21.0938 80.4531 20.8125C80.1406 20.5156 79.9844 20.1484 79.9844 19.7109V15.7031V14.7188C80.0312 13.875 80.3281 13.1484 80.875 12.5391C81.4219 11.9297 82.0547 11.4453 82.7734 11.0859C83.4922 10.7109 84.2422 10.4297 85.0234 10.2422C85.8203 10.0547 86.625 9.96094 87.4375 9.96094ZM102.695 20.9531C101.32 20.9062 100.281 20.5859 99.5781 19.9922C98.875 19.3828 98.3672 18.7031 98.0547 17.9531C97.7422 17.1875 97.5859 16.4141 97.5859 15.6328C97.5859 14.8203 97.7344 14.0391 98.0312 13.2891C98.3438 12.5234 98.8516 11.8438 99.5547 11.25C100.273 10.6406 101.18 10.3281 102.273 10.3125H111.18C111.617 10.3125 111.984 10.4609 112.281 10.7578C112.594 11.0391 112.75 11.3828 112.75 11.7891C112.75 12.2109 112.594 12.5703 112.281 12.8672C111.984 13.1484 111.617 13.2891 111.18 13.2891H102.414C102.07 13.2891 101.766 13.4062 101.5 13.6406C101.25 13.875 101.062 14.1797 100.938 14.5547C100.828 14.9297 100.773 15.2969 100.773 15.6562C100.773 16.0469 100.828 16.4297 100.938 16.8047C101.062 17.1797 101.25 17.4844 101.5 17.7188C101.766 17.9375 102.07 18.0547 102.414 18.0703H111.18C111.617 18.0703 111.984 18.2109 112.281 18.4922C112.594 18.7734 112.75 19.1094 112.75 19.5C112.75 19.9062 112.594 20.25 112.281 20.5312C111.984 20.8125 111.617 20.9531 111.18 20.9531H102.695ZM112.469 15.5859C112.469 15.8828 112.336 16.1406 112.07 16.3594C111.836 16.5625 111.539 16.6641 111.18 16.6641H103.516C103.156 16.6641 102.852 16.5625 102.602 16.3594C102.352 16.1406 102.227 15.8828 102.227 15.5859C102.227 15.3047 102.352 15.0547 102.602 14.8359C102.852 14.6328 103.156 14.5312 103.516 14.5312H111.18C111.539 14.5312 111.844 14.6406 112.094 14.8594C112.344 15.0625 112.469 15.3047 112.469 15.5859ZM115.938 13.2656C116.234 12.5156 116.734 11.8438 117.438 11.25C118.156 10.6406 119.062 10.3281 120.156 10.3125H128.969C129.406 10.3125 129.773 10.4688 130.07 10.7812C130.383 11.0781 130.539 11.4453 130.539 11.8828C130.539 12.3203 130.383 12.6953 130.07 13.0078C129.773 13.3047 129.406 13.4531 128.969 13.4531H120.062C119.766 13.4531 119.508 13.5781 119.289 13.8281C119.07 14.0625 118.898 14.3438 118.773 14.6719C118.664 15 118.609 15.3125 118.609 15.6094V19.7109C118.516 20.6484 118 21.1562 117.062 21.2344C116.625 21.2344 116.242 21.0938 115.914 20.8125C115.602 20.5156 115.445 20.1484 115.445 19.7109V15.6328H115.469C115.469 14.8203 115.625 14.0312 115.938 13.2656ZM145.961 19.7109V14.0625C145.961 13.6719 145.758 13.4688 145.352 13.4531H137.148C136.852 13.4688 136.594 13.6016 136.375 13.8516C136.156 14.0859 135.992 14.3672 135.883 14.6953C135.789 15.0078 135.742 15.3281 135.742 15.6562C135.742 15.9688 135.789 16.2891 135.883 16.6172C135.992 16.9297 136.156 17.2109 136.375 17.4609C136.594 17.6953 136.852 17.8125 137.148 17.8125H143.148C143.586 17.8125 143.953 17.9688 144.25 18.2812C144.562 18.5781 144.719 18.9453 144.719 19.3828C144.719 19.8203 144.562 20.1875 144.25 20.4844C143.953 20.7969 143.586 20.9531 143.148 20.9531H137.242C136.148 20.9375 135.242 20.6328 134.523 20.0391C133.82 19.4297 133.312 18.75 133 18C132.703 17.2344 132.555 16.4453 132.555 15.6328C132.555 14.8516 132.711 14.0859 133.023 13.3359C133.336 12.5703 133.844 11.8906 134.547 11.2969C135.25 10.6875 136.289 10.3594 137.664 10.3125H147.508C147.945 10.3125 148.32 10.4609 148.633 10.7578C148.945 11.0391 149.109 11.3984 149.125 11.8359V19.7109C149.125 20.1484 148.961 20.5156 148.633 20.8125C148.32 21.0938 147.945 21.2344 147.508 21.2344C146.57 21.1562 146.055 20.6484 145.961 19.7109Z" fill="black"/>
<path d="M38.65 34.05C38.1567 34.05 37.7767 33.9167 37.51 33.65C37.2433 33.3833 37.11 33.0067 37.11 32.52V27.59H37.82V32.48C37.82 32.7867 37.8967 33.0233 38.05 33.19C38.21 33.3567 38.4367 33.44 38.73 33.44C39.0433 33.44 39.3033 33.35 39.51 33.17L39.76 33.68C39.62 33.8067 39.45 33.9 39.25 33.96C39.0567 34.02 38.8567 34.05 38.65 34.05ZM36.17 29.34V28.75H39.42V29.34H36.17ZM44.3425 34V32.84L44.3125 32.65V30.71C44.3125 30.2633 44.1858 29.92 43.9325 29.68C43.6858 29.44 43.3158 29.32 42.8225 29.32C42.4825 29.32 42.1592 29.3767 41.8525 29.49C41.5458 29.6033 41.2858 29.7533 41.0725 29.94L40.7525 29.41C41.0192 29.1833 41.3392 29.01 41.7125 28.89C42.0858 28.7633 42.4792 28.7 42.8925 28.7C43.5725 28.7 44.0958 28.87 44.4625 29.21C44.8358 29.5433 45.0225 30.0533 45.0225 30.74V34H44.3425ZM42.5325 34.05C42.1392 34.05 41.7958 33.9867 41.5025 33.86C41.2158 33.7267 40.9958 33.5467 40.8425 33.32C40.6892 33.0867 40.6125 32.82 40.6125 32.52C40.6125 32.2467 40.6758 32 40.8025 31.78C40.9358 31.5533 41.1492 31.3733 41.4425 31.24C41.7425 31.1 42.1425 31.03 42.6425 31.03H44.4525V31.56H42.6625C42.1558 31.56 41.8025 31.65 41.6025 31.83C41.4092 32.01 41.3125 32.2333 41.3125 32.5C41.3125 32.8 41.4292 33.04 41.6625 33.22C41.8958 33.4 42.2225 33.49 42.6425 33.49C43.0425 33.49 43.3858 33.4 43.6725 33.22C43.9658 33.0333 44.1792 32.7667 44.3125 32.42L44.4725 32.91C44.3392 33.2567 44.1058 33.5333 43.7725 33.74C43.4458 33.9467 43.0325 34.05 42.5325 34.05ZM48.3609 34.05C47.9276 34.05 47.5176 33.99 47.1309 33.87C46.7443 33.7433 46.4409 33.5867 46.2209 33.4L46.5409 32.84C46.7543 33 47.0276 33.14 47.3609 33.26C47.6943 33.3733 48.0443 33.43 48.4109 33.43C48.9109 33.43 49.2709 33.3533 49.4909 33.2C49.7109 33.04 49.8209 32.83 49.8209 32.57C49.8209 32.3767 49.7576 32.2267 49.6309 32.12C49.5109 32.0067 49.3509 31.9233 49.1509 31.87C48.9509 31.81 48.7276 31.76 48.4809 31.72C48.2343 31.68 47.9876 31.6333 47.7409 31.58C47.5009 31.5267 47.2809 31.45 47.0809 31.35C46.8809 31.2433 46.7176 31.1 46.5909 30.92C46.4709 30.74 46.4109 30.5 46.4109 30.2C46.4109 29.9133 46.4909 29.6567 46.6509 29.43C46.8109 29.2033 47.0443 29.0267 47.3509 28.9C47.6643 28.7667 48.0443 28.7 48.4909 28.7C48.8309 28.7 49.1709 28.7467 49.5109 28.84C49.8509 28.9267 50.1309 29.0433 50.3509 29.19L50.0409 29.76C49.8076 29.6 49.5576 29.4867 49.2909 29.42C49.0243 29.3467 48.7576 29.31 48.4909 29.31C48.0176 29.31 47.6676 29.3933 47.4409 29.56C47.2209 29.72 47.1109 29.9267 47.1109 30.18C47.1109 30.38 47.1709 30.5367 47.2909 30.65C47.4176 30.7633 47.5809 30.8533 47.7809 30.92C47.9876 30.98 48.2109 31.03 48.4509 31.07C48.6976 31.11 48.9409 31.16 49.1809 31.22C49.4276 31.2733 49.6509 31.35 49.8509 31.45C50.0576 31.5433 50.2209 31.68 50.3409 31.86C50.4676 32.0333 50.5309 32.2633 50.5309 32.55C50.5309 32.8567 50.4443 33.1233 50.2709 33.35C50.1043 33.57 49.8576 33.7433 49.5309 33.87C49.2109 33.99 48.8209 34.05 48.3609 34.05ZM52.3938 32.64L52.4138 31.73L55.6838 28.75H56.5538L54.2438 30.96L53.8438 31.3L52.3938 32.64ZM51.8338 34V26.58H52.5438V34H51.8338ZM55.9038 34L53.7138 31.27L54.1738 30.72L56.7738 34H55.9038ZM67.0168 28.7C67.4435 28.7 67.8135 28.7833 68.1268 28.95C68.4468 29.11 68.6935 29.3567 68.8668 29.69C69.0468 30.0233 69.1368 30.4433 69.1368 30.95V34H68.4268V31.02C68.4268 30.4667 68.2935 30.05 68.0268 29.77C67.7668 29.4833 67.3968 29.34 66.9168 29.34C66.5568 29.34 66.2435 29.4167 65.9768 29.57C65.7168 29.7167 65.5135 29.9333 65.3668 30.22C65.2268 30.5 65.1568 30.84 65.1568 31.24V34H64.4468V31.02C64.4468 30.4667 64.3135 30.05 64.0468 29.77C63.7801 29.4833 63.4068 29.34 62.9268 29.34C62.5735 29.34 62.2635 29.4167 61.9968 29.57C61.7301 29.7167 61.5235 29.9333 61.3768 30.22C61.2368 30.5 61.1668 30.84 61.1668 31.24V34H60.4568V28.75H61.1368V30.17L61.0268 29.92C61.1868 29.54 61.4435 29.2433 61.7968 29.03C62.1568 28.81 62.5801 28.7 63.0668 28.7C63.5801 28.7 64.0168 28.83 64.3768 29.09C64.7368 29.3433 64.9701 29.7267 65.0768 30.24L64.7968 30.13C64.9501 29.7033 65.2201 29.36 65.6068 29.1C66.0001 28.8333 66.4701 28.7 67.0168 28.7ZM74.3523 34V32.84L74.3223 32.65V30.71C74.3223 30.2633 74.1956 29.92 73.9423 29.68C73.6956 29.44 73.3256 29.32 72.8323 29.32C72.4923 29.32 72.1689 29.3767 71.8623 29.49C71.5556 29.6033 71.2956 29.7533 71.0823 29.94L70.7623 29.41C71.0289 29.1833 71.3489 29.01 71.7223 28.89C72.0956 28.7633 72.4889 28.7 72.9023 28.7C73.5823 28.7 74.1056 28.87 74.4723 29.21C74.8456 29.5433 75.0323 30.0533 75.0323 30.74V34H74.3523ZM72.5423 34.05C72.1489 34.05 71.8056 33.9867 71.5123 33.86C71.2256 33.7267 71.0056 33.5467 70.8523 33.32C70.6989 33.0867 70.6223 32.82 70.6223 32.52C70.6223 32.2467 70.6856 32 70.8123 31.78C70.9456 31.5533 71.1589 31.3733 71.4523 31.24C71.7523 31.1 72.1523 31.03 72.6523 31.03H74.4623V31.56H72.6723C72.1656 31.56 71.8123 31.65 71.6123 31.83C71.4189 32.01 71.3223 32.2333 71.3223 32.5C71.3223 32.8 71.4389 33.04 71.6723 33.22C71.9056 33.4 72.2323 33.49 72.6523 33.49C73.0523 33.49 73.3956 33.4 73.6823 33.22C73.9756 33.0333 74.1889 32.7667 74.3223 32.42L74.4823 32.91C74.3489 33.2567 74.1156 33.5333 73.7823 33.74C73.4556 33.9467 73.0423 34.05 72.5423 34.05ZM79.6407 28.7C80.0674 28.7 80.4407 28.7833 80.7607 28.95C81.0874 29.11 81.3407 29.3567 81.5207 29.69C81.7074 30.0233 81.8007 30.4433 81.8007 30.95V34H81.0907V31.02C81.0907 30.4667 80.9507 30.05 80.6707 29.77C80.3974 29.4833 80.0107 29.34 79.5107 29.34C79.1374 29.34 78.8107 29.4167 78.5307 29.57C78.2574 29.7167 78.044 29.9333 77.8907 30.22C77.744 30.5 77.6707 30.84 77.6707 31.24V34H76.9607V28.75H77.6407V30.19L77.5307 29.92C77.6974 29.54 77.964 29.2433 78.3307 29.03C78.6974 28.81 79.134 28.7 79.6407 28.7ZM87.0085 34V32.84L86.9785 32.65V30.71C86.9785 30.2633 86.8518 29.92 86.5985 29.68C86.3518 29.44 85.9818 29.32 85.4885 29.32C85.1485 29.32 84.8252 29.3767 84.5185 29.49C84.2118 29.6033 83.9518 29.7533 83.7385 29.94L83.4185 29.41C83.6852 29.1833 84.0052 29.01 84.3785 28.89C84.7518 28.7633 85.1452 28.7 85.5585 28.7C86.2385 28.7 86.7618 28.87 87.1285 29.21C87.5018 29.5433 87.6885 30.0533 87.6885 30.74V34H87.0085ZM85.1985 34.05C84.8052 34.05 84.4618 33.9867 84.1685 33.86C83.8818 33.7267 83.6618 33.5467 83.5085 33.32C83.3552 33.0867 83.2785 32.82 83.2785 32.52C83.2785 32.2467 83.3418 32 83.4685 31.78C83.6018 31.5533 83.8152 31.3733 84.1085 31.24C84.4085 31.1 84.8085 31.03 85.3085 31.03H87.1185V31.56H85.3285C84.8218 31.56 84.4685 31.65 84.2685 31.83C84.0752 32.01 83.9785 32.2333 83.9785 32.5C83.9785 32.8 84.0952 33.04 84.3285 33.22C84.5618 33.4 84.8885 33.49 85.3085 33.49C85.7085 33.49 86.0518 33.4 86.3385 33.22C86.6318 33.0333 86.8452 32.7667 86.9785 32.42L87.1385 32.91C87.0052 33.2567 86.7718 33.5333 86.4385 33.74C86.1118 33.9467 85.6985 34.05 85.1985 34.05ZM91.857 35.99C91.377 35.99 90.917 35.92 90.477 35.78C90.037 35.64 89.6803 35.44 89.407 35.18L89.767 34.64C90.0136 34.86 90.317 35.0333 90.677 35.16C91.0436 35.2933 91.4303 35.36 91.837 35.36C92.5036 35.36 92.9936 35.2033 93.307 34.89C93.6203 34.5833 93.777 34.1033 93.777 33.45V32.14L93.877 31.24L93.807 30.34V28.75H94.487V33.36C94.487 34.2667 94.2636 34.93 93.817 35.35C93.377 35.7767 92.7236 35.99 91.857 35.99ZM91.727 33.8C91.227 33.8 90.777 33.6933 90.377 33.48C89.977 33.26 89.6603 32.9567 89.427 32.57C89.2003 32.1833 89.087 31.74 89.087 31.24C89.087 30.74 89.2003 30.3 89.427 29.92C89.6603 29.5333 89.977 29.2333 90.377 29.02C90.777 28.8067 91.227 28.7 91.727 28.7C92.1936 28.7 92.6136 28.7967 92.987 28.99C93.3603 29.1833 93.657 29.47 93.877 29.85C94.097 30.23 94.207 30.6933 94.207 31.24C94.207 31.7867 94.097 32.25 93.877 32.63C93.657 33.01 93.3603 33.3 92.987 33.5C92.6136 33.7 92.1936 33.8 91.727 33.8ZM91.797 33.17C92.1836 33.17 92.527 33.09 92.827 32.93C93.127 32.7633 93.3636 32.5367 93.537 32.25C93.7103 31.9567 93.797 31.62 93.797 31.24C93.797 30.86 93.7103 30.5267 93.537 30.24C93.3636 29.9533 93.127 29.73 92.827 29.57C92.527 29.4033 92.1836 29.32 91.797 29.32C91.417 29.32 91.0736 29.4033 90.767 29.57C90.467 29.73 90.2303 29.9533 90.057 30.24C89.8903 30.5267 89.807 30.86 89.807 31.24C89.807 31.62 89.8903 31.9567 90.057 32.25C90.2303 32.5367 90.467 32.7633 90.767 32.93C91.0736 33.09 91.417 33.17 91.797 33.17ZM98.6927 34.05C98.146 34.05 97.666 33.9367 97.2527 33.71C96.8393 33.4767 96.516 33.16 96.2827 32.76C96.0493 32.3533 95.9327 31.89 95.9327 31.37C95.9327 30.85 96.0427 30.39 96.2627 29.99C96.4893 29.59 96.796 29.2767 97.1827 29.05C97.576 28.8167 98.016 28.7 98.5027 28.7C98.996 28.7 99.4327 28.8133 99.8127 29.04C100.199 29.26 100.503 29.5733 100.723 29.98C100.943 30.38 101.053 30.8433 101.053 31.37C101.053 31.4033 101.049 31.44 101.043 31.48C101.043 31.5133 101.043 31.55 101.043 31.59H96.4727V31.06H100.663L100.383 31.27C100.383 30.89 100.299 30.5533 100.133 30.26C99.9727 29.96 99.7527 29.7267 99.4727 29.56C99.1927 29.3933 98.8693 29.31 98.5027 29.31C98.1427 29.31 97.8193 29.3933 97.5327 29.56C97.246 29.7267 97.0227 29.96 96.8627 30.26C96.7027 30.56 96.6227 30.9033 96.6227 31.29V31.4C96.6227 31.8 96.7093 32.1533 96.8827 32.46C97.0627 32.76 97.3093 32.9967 97.6227 33.17C97.9427 33.3367 98.306 33.42 98.7127 33.42C99.0327 33.42 99.3293 33.3633 99.6027 33.25C99.8827 33.1367 100.123 32.9633 100.323 32.73L100.723 33.19C100.489 33.47 100.196 33.6833 99.8427 33.83C99.496 33.9767 99.1127 34.05 98.6927 34.05ZM109.058 28.7C109.484 28.7 109.854 28.7833 110.168 28.95C110.488 29.11 110.734 29.3567 110.908 29.69C111.088 30.0233 111.178 30.4433 111.178 30.95V34H110.468V31.02C110.468 30.4667 110.334 30.05 110.068 29.77C109.808 29.4833 109.438 29.34 108.958 29.34C108.598 29.34 108.284 29.4167 108.018 29.57C107.758 29.7167 107.554 29.9333 107.408 30.22C107.268 30.5 107.198 30.84 107.198 31.24V34H106.488V31.02C106.488 30.4667 106.354 30.05 106.088 29.77C105.821 29.4833 105.448 29.34 104.968 29.34C104.614 29.34 104.304 29.4167 104.038 29.57C103.771 29.7167 103.564 29.9333 103.418 30.22C103.278 30.5 103.208 30.84 103.208 31.24V34H102.498V28.75H103.178V30.17L103.068 29.92C103.228 29.54 103.484 29.2433 103.838 29.03C104.198 28.81 104.621 28.7 105.108 28.7C105.621 28.7 106.058 28.83 106.418 29.09C106.778 29.3433 107.011 29.7267 107.118 30.24L106.838 30.13C106.991 29.7033 107.261 29.36 107.648 29.1C108.041 28.8333 108.511 28.7 109.058 28.7ZM115.333 34.05C114.787 34.05 114.307 33.9367 113.893 33.71C113.48 33.4767 113.157 33.16 112.923 32.76C112.69 32.3533 112.573 31.89 112.573 31.37C112.573 30.85 112.683 30.39 112.903 29.99C113.13 29.59 113.437 29.2767 113.823 29.05C114.217 28.8167 114.657 28.7 115.143 28.7C115.637 28.7 116.073 28.8133 116.453 29.04C116.84 29.26 117.143 29.5733 117.363 29.98C117.583 30.38 117.693 30.8433 117.693 31.37C117.693 31.4033 117.69 31.44 117.683 31.48C117.683 31.5133 117.683 31.55 117.683 31.59H113.113V31.06H117.303L117.023 31.27C117.023 30.89 116.94 30.5533 116.773 30.26C116.613 29.96 116.393 29.7267 116.113 29.56C115.833 29.3933 115.51 29.31 115.143 29.31C114.783 29.31 114.46 29.3933 114.173 29.56C113.887 29.7267 113.663 29.96 113.503 30.26C113.343 30.56 113.263 30.9033 113.263 31.29V31.4C113.263 31.8 113.35 32.1533 113.523 32.46C113.703 32.76 113.95 32.9967 114.263 33.17C114.583 33.3367 114.947 33.42 115.353 33.42C115.673 33.42 115.97 33.3633 116.243 33.25C116.523 33.1367 116.763 32.9633 116.963 32.73L117.363 33.19C117.13 33.47 116.837 33.6833 116.483 33.83C116.137 33.9767 115.753 34.05 115.333 34.05ZM121.818 28.7C122.245 28.7 122.618 28.7833 122.938 28.95C123.265 29.11 123.518 29.3567 123.698 29.69C123.885 30.0233 123.978 30.4433 123.978 30.95V34H123.268V31.02C123.268 30.4667 123.128 30.05 122.848 29.77C122.575 29.4833 122.188 29.34 121.688 29.34C121.315 29.34 120.988 29.4167 120.708 29.57C120.435 29.7167 120.222 29.9333 120.068 30.22C119.922 30.5 119.848 30.84 119.848 31.24V34H119.138V28.75H119.818V30.19L119.708 29.92C119.875 29.54 120.142 29.2433 120.508 29.03C120.875 28.81 121.312 28.7 121.818 28.7ZM127.556 34.05C127.063 34.05 126.683 33.9167 126.416 33.65C126.15 33.3833 126.016 33.0067 126.016 32.52V27.59H126.726V32.48C126.726 32.7867 126.803 33.0233 126.956 33.19C127.116 33.3567 127.343 33.44 127.636 33.44C127.95 33.44 128.21 33.35 128.416 33.17L128.666 33.68C128.526 33.8067 128.356 33.9 128.156 33.96C127.963 34.02 127.763 34.05 127.556 34.05ZM125.076 29.34V28.75H128.326V29.34H125.076Z" fill="black"/>
<g clip-path="url(#clip0_2206_5)">
<path d="M26.6659 13.002C26.4371 12.7796 26.1159 12.6785 25.8017 12.7302C25.4868 12.7817 25.2149 12.9794 25.0688 13.263C24.5665 14.2388 23.9285 15.1356 23.1778 15.9284C23.2527 15.3557 23.2903 14.7796 23.2903 14.202C23.2903 13.0937 23.1418 11.9531 22.8487 10.8116C21.885 7.06228 19.358 3.89152 15.9158 2.1124C15.6161 1.95756 15.259 1.96299 14.9642 2.1269C14.6693 2.29087 14.4762 2.59149 14.4498 2.92776C14.1814 6.33498 12.4264 9.4348 9.63203 11.4344C9.59505 11.4611 9.55833 11.488 9.52162 11.5149C9.44557 11.5705 9.37389 11.6231 9.30691 11.6673C9.29644 11.6743 9.28603 11.6814 9.27583 11.6887C7.51839 12.947 6.06828 14.6243 5.08211 16.5398C4.08002 18.4882 3.57193 20.579 3.57193 22.754C3.57193 23.862 3.72046 25.0026 4.01344 26.1443C5.55952 32.1619 10.9749 36.3648 17.1828 36.3648C24.6874 36.3648 30.7928 30.259 30.7928 22.754C30.7928 19.0531 29.3272 15.5897 26.6659 13.002Z" fill="#7756FC"/>
<circle cx="16.1717" cy="22.2146" r="4.04293" fill="white"/>
</g>
<defs>
<clipPath id="clip0_2206_5">
<rect width="34.3649" height="34.3649" fill="white" transform="translate(0 2)"/>
</clipPath>
</defs>
</svg>
