<svg width="35" height="35" viewBox="0 0 35 35" fill="none" xmlns="http://www.w3.org/2000/svg">
<g clip-path="url(#clip0_69_340)">
<path d="M26.6659 11.002C26.4371 10.7796 26.1159 10.6785 25.8017 10.7302C25.4868 10.7817 25.2149 10.9794 25.0688 11.263C24.5665 12.2388 23.9285 13.1356 23.1778 13.9284C23.2527 13.3557 23.2903 12.7796 23.2903 12.202C23.2903 11.0937 23.1418 9.95311 22.8487 8.81161C21.885 5.06228 19.358 1.89152 15.9158 0.112398C15.6161 -0.0424449 15.259 -0.0370083 14.9642 0.126896C14.6693 0.290868 14.4762 0.591493 14.4498 0.927759C14.1814 4.33498 12.4264 7.4348 9.63203 9.43441C9.59505 9.46106 9.55833 9.48804 9.52162 9.51489C9.44557 9.57053 9.37389 9.62315 9.30691 9.66731C9.29644 9.67429 9.28603 9.68141 9.27583 9.68872C7.51839 10.947 6.06828 12.6243 5.08211 14.5398C4.08002 16.4882 3.57193 18.579 3.57193 20.754C3.57193 21.862 3.72046 23.0026 4.01344 24.1443C5.55952 30.1619 10.9749 34.3648 17.1828 34.3648C24.6874 34.3648 30.7928 28.259 30.7928 20.754C30.7928 17.0531 29.3272 13.5897 26.6659 11.002Z" fill="#7756FC"/>
<circle cx="16.1717" cy="20.2146" r="4.04293" fill="white"/>
</g>
<defs>
<clipPath id="clip0_69_340">
<rect width="34.3649" height="34.3649" fill="white"/>
</clipPath>
</defs>
</svg>
